<svg xmlns="http://www.w3.org/2000/svg" width="22" height="22" viewBox="0 0 22 22" fill="none"><path d="M8.5 16H16M21 3.5V18.5C21 19.163 20.7366 19.7989 20.2678 20.2678C19.7989 20.7366 19.163 21 18.5 21H6C5.33696 21 4.70107 20.7366 4.23223 20.2678C3.76339 19.7989 3.5 19.163 3.5 18.5V3.5C3.5 2.83696 3.76339 2.20107 4.23223 1.73223C4.70107 1.26339 5.33696 1 6 1H18.5C19.163 1 19.7989 1.26339 20.2678 1.73223C20.7366 2.20107 21 2.83696 21 3.5Z" stroke="#DFAF43" stroke-width="1.5" stroke-linecap="round" stroke-linejoin="round"></path><path d="M1 6H4.75M1 11H4.75M1 16H4.75M9.75 9.75C9.75 10.413 10.0134 11.0489 10.4822 11.5178C10.9511 11.9866 11.587 12.25 12.25 12.25C12.913 12.25 13.5489 11.9866 14.0178 11.5178C14.4866 11.0489 14.75 10.413 14.75 9.75C14.75 9.08696 14.4866 8.45107 14.0178 7.98223C13.5489 7.51339 12.913 7.25 12.25 7.25C11.587 7.25 10.9511 7.51339 10.4822 7.98223C10.0134 8.45107 9.75 9.08696 9.75 9.75Z" stroke="#DFAF43" stroke-width="1.5" stroke-linecap="round" stroke-linejoin="round"></path></svg>