<svg xmlns="http://www.w3.org/2000/svg" width="14" height="14" viewBox="0 0 14 14" fill="none"><circle cx="7" cy="7" r="7" fill="#D89C15"></circle><path d="M9.67822 3.36651C9.55484 3.29773 9.41913 3.25399 9.27886 3.23779C9.13859 3.22159 8.9965 3.23326 8.86074 3.27211C8.72497 3.31096 8.59818 3.37625 8.48761 3.46423C8.37705 3.55221 8.28488 3.66116 8.21638 3.78486L6.22086 7.38252L5.0788 6.2384C4.97964 6.13555 4.86103 6.05351 4.72989 5.99708C4.59875 5.94064 4.45771 5.91094 4.31499 5.9097C4.17226 5.90845 4.03072 5.9357 3.89862 5.98984C3.76652 6.04399 3.64651 6.12394 3.54559 6.22505C3.44466 6.32615 3.36485 6.44638 3.31081 6.57872C3.25676 6.71106 3.22956 6.85285 3.2308 6.99583C3.23204 7.13881 3.2617 7.28011 3.31803 7.41149C3.37436 7.54287 3.45625 7.66169 3.55891 7.76102L5.70868 9.91467C5.91183 10.1187 6.18593 10.2307 6.46862 10.2307L6.61749 10.2199C6.78224 10.1969 6.9394 10.1358 7.07658 10.0415C7.21377 9.94723 7.32724 9.82235 7.40807 9.67669L10.0953 4.83099C10.1639 4.7074 10.2075 4.57148 10.2237 4.43099C10.2399 4.29051 10.2282 4.14821 10.1895 4.01222C10.1508 3.87623 10.0857 3.74921 9.99798 3.63842C9.91025 3.52763 9.80159 3.43523 9.67822 3.36651Z" fill="#151515"></path></svg>